<svg width="68" height="20" viewBox="0 0 68 20" fill="none" xmlns="http://www.w3.org/2000/svg">
<path d="M6.78 19.3C5.85 19.3 5.095 19.12 4.515 18.76C3.945 18.4 3.525 17.94 3.255 17.38C2.995 16.82 2.865 16.23 2.865 15.61V6.685H0.51L0.795 4.18H2.865V0.684999L6 0.355V4.18H9.63V6.685H6V14.02C6 14.88 6.05 15.505 6.15 15.895C6.25 16.275 6.495 16.515 6.885 16.615C7.275 16.715 7.895 16.765 8.745 16.765H9.585L9.315 19.3H6.78ZM18.1324 19.3C16.3624 19.3 14.8824 18.945 13.6924 18.235C12.5024 17.515 11.6024 16.565 10.9924 15.385C10.3924 14.195 10.0924 12.895 10.0924 11.485C10.0924 10.115 10.3724 8.855 10.9324 7.705C11.5024 6.555 12.3274 5.635 13.4074 4.945C14.4974 4.245 15.8124 3.895 17.3524 3.895C18.6624 3.895 19.7974 4.16 20.7574 4.69C21.7174 5.22 22.4524 5.96 22.9624 6.91C23.4824 7.86 23.7424 8.97 23.7424 10.24C23.7424 10.5 23.7274 10.77 23.6974 11.05C23.6774 11.33 23.6374 11.625 23.5774 11.935H13.3324C13.4624 13.105 13.7724 14.035 14.2624 14.725C14.7524 15.405 15.3624 15.89 16.0924 16.18C16.8224 16.47 17.6124 16.615 18.4624 16.615C19.2224 16.615 19.9724 16.53 20.7124 16.36C21.4524 16.18 22.1474 15.925 22.7974 15.595L23.0824 18.16C22.5124 18.43 21.8124 18.69 20.9824 18.94C20.1524 19.18 19.2024 19.3 18.1324 19.3ZM13.5124 9.79H20.5324C20.5324 9.2 20.4224 8.665 20.2024 8.185C19.9824 7.695 19.6324 7.305 19.1524 7.015C18.6824 6.725 18.0724 6.58 17.3224 6.58C16.2224 6.58 15.3674 6.87 14.7574 7.45C14.1574 8.03 13.7424 8.81 13.5124 9.79ZM28.8476 19.3C27.9876 19.3 27.2226 19.12 26.5526 18.76C25.8826 18.39 25.3526 17.88 24.9626 17.23C24.5826 16.58 24.3926 15.815 24.3926 14.935C24.3926 14.095 24.5826 13.38 24.9626 12.79C25.3426 12.19 25.8476 11.69 26.4776 11.29C27.1076 10.89 27.7976 10.575 28.5476 10.345C29.3076 10.105 30.0776 9.93 30.8576 9.82C31.6376 9.71 32.3626 9.65 33.0326 9.64C33.0226 8.47 32.7726 7.68 32.2826 7.27C31.7926 6.85 31.0476 6.64 30.0476 6.64C29.4476 6.64 28.8326 6.73 28.2026 6.91C27.5726 7.08 26.8626 7.405 26.0726 7.885L25.7126 5.335C26.4326 4.895 27.2376 4.545 28.1276 4.285C29.0176 4.025 29.9376 3.895 30.8876 3.895C32.0776 3.895 33.0626 4.105 33.8426 4.525C34.6226 4.945 35.2076 5.64 35.5976 6.61C35.9876 7.58 36.1826 8.88 36.1826 10.51V13.96C36.1826 14.68 36.2126 15.245 36.2726 15.655C36.3426 16.055 36.4876 16.34 36.7076 16.51C36.9276 16.68 37.2626 16.765 37.7126 16.765H38.0726L37.6826 19.3H36.9926C36.2526 19.3 35.6526 19.22 35.1926 19.06C34.7426 18.9 34.3776 18.675 34.0976 18.385C33.8176 18.085 33.5826 17.73 33.3926 17.32C32.8626 17.92 32.2026 18.4 31.4126 18.76C30.6326 19.12 29.7776 19.3 28.8476 19.3ZM29.8076 16.84C30.3676 16.84 30.9426 16.7 31.5326 16.42C32.1326 16.14 32.6376 15.75 33.0476 15.25V11.77C31.9276 11.82 30.9626 11.955 30.1526 12.175C29.3526 12.385 28.7326 12.705 28.2926 13.135C27.8626 13.565 27.6476 14.115 27.6476 14.785C27.6476 15.505 27.8376 16.03 28.2176 16.36C28.5976 16.68 29.1276 16.84 29.8076 16.84ZM39.2217 19V4.18H41.7867L42.2067 6.73L41.3817 6.175C42.1517 5.415 42.9567 4.845 43.7967 4.465C44.6367 4.085 45.5567 3.895 46.5567 3.895C47.3167 3.895 48.0167 4.015 48.6567 4.255C49.2967 4.485 49.8617 4.86 50.3517 5.38C50.8517 5.9 51.2517 6.59 51.5517 7.45L50.7417 7.165C51.2017 6.145 51.8867 5.345 52.7967 4.765C53.7167 4.185 54.8667 3.895 56.2467 3.895C57.5367 3.895 58.6067 4.15 59.4567 4.66C60.3167 5.16 60.9567 5.9 61.3767 6.88C61.7967 7.85 62.0067 9.045 62.0067 10.465V19H58.8717V10.6C58.8717 9.21 58.6217 8.195 58.1217 7.555C57.6317 6.905 56.8217 6.58 55.6917 6.58C54.9817 6.58 54.3967 6.695 53.9367 6.925C53.4767 7.145 53.1167 7.45 52.8567 7.84C52.6067 8.22 52.4317 8.645 52.3317 9.115C52.2317 9.585 52.1817 10.065 52.1817 10.555V19H49.0467V10.915C49.0467 9.825 48.9217 8.965 48.6717 8.335C48.4217 7.705 48.0567 7.255 47.5767 6.985C47.0967 6.715 46.5167 6.58 45.8367 6.58C44.8967 6.58 44.0817 6.79 43.3917 7.21C42.7117 7.63 42.2067 8.26 41.8767 9.1L42.3567 7.405V19H39.2217Z" fill="white"/>
<path d="M64.1831 19V15.445H67.6931V19H64.1831Z" fill="#0BBEF2"/>
</svg>
